<svg width="300" height="37" viewBox="0 0 300 37" fill="none" xmlns="http://www.w3.org/2000/svg">
<g clip-path="url(#clip0_588_2)">
<g clip-path="url(#clip1_588_2)">
<g clip-path="url(#clip2_588_2)">
<mask id="mask0_588_2" style="mask-type:luminance" maskUnits="userSpaceOnUse" x="21" y="0" width="257" height="16">
<path d="M21.9723 7.62744C21.9723 3.48531 25.3301 0.127441 29.4723 0.127441H270.355C274.497 0.127441 277.855 3.48531 277.855 7.62744C277.855 11.7696 274.497 15.1274 270.355 15.1274H29.4723C25.3301 15.1274 21.9723 11.7696 21.9723 7.62744Z" fill="white"/>
</mask>
<g mask="url(#mask0_588_2)">
<path d="M21.9723 7.62747C21.9723 2.99802 25.7252 -0.754883 30.3546 -0.754883H269.472C274.102 -0.754883 277.855 2.99802 277.855 7.62747C277.855 3.97264 274.497 1.00982 270.355 1.00982H29.4723C25.3301 1.00982 21.9723 3.97264 21.9723 7.62747Z" fill="white"/>
</g>
<path d="M0 14.2451H44.1176V15.1275H0V14.2451Z" fill="white"/>
<mask id="mask1_588_2" style="mask-type:luminance" maskUnits="userSpaceOnUse" x="0" y="14" width="45" height="2">
<path d="M0 14.2451H44.1176V15.1275H0V14.2451Z" fill="white"/>
</mask>
<g mask="url(#mask1_588_2)">
<path d="M44.1176 14.2451H0V16.0098H44.1176V14.2451Z" fill="white"/>
</g>
<path d="M70.938 18L70.938 10L72.145 10L72.145 16.9609L75.77 16.9609L75.77 18L70.938 18ZM79.147 18L79.147 10L84.1626 10L84.1626 11.0391L80.354 11.0391L80.354 13.4766L83.9009 13.4766L83.9009 14.5117L80.354 14.5117L80.354 16.9609L84.2095 16.9609L84.2095 18L79.147 18ZM87.3804 11.0391L87.3804 10L93.5718 10L93.5718 11.0391L91.0757 11.0391L91.0757 18L89.8726 18L89.8726 11.0391L87.3804 11.0391ZM97.8501 10L97.8501 10.75C97.8501 10.9714 97.8084 11.2044 97.7251 11.4492C97.6444 11.6914 97.5298 11.9245 97.3813 12.1484C97.2329 12.3724 97.0584 12.5651 96.8579 12.7266L96.2798 12.3125C96.4334 12.0885 96.5662 11.8503 96.6782 11.5977C96.7928 11.3451 96.8501 11.0664 96.8501 10.7617L96.8501 10L97.8501 10ZM105.495 12.1016C105.453 11.7318 105.281 11.4453 104.979 11.2422C104.677 11.0365 104.297 10.9336 103.838 10.9336C103.51 10.9336 103.226 10.9857 102.987 11.0898C102.747 11.1914 102.561 11.332 102.428 11.5117C102.298 11.6888 102.233 11.8906 102.233 12.1172C102.233 12.3073 102.277 12.4714 102.366 12.6094C102.457 12.7474 102.575 12.8633 102.721 12.957C102.87 13.0482 103.028 13.125 103.198 13.1875C103.367 13.2474 103.53 13.2969 103.686 13.3359L104.467 13.5391C104.722 13.6016 104.984 13.6862 105.252 13.793C105.521 13.8997 105.769 14.0404 105.999 14.2148C106.228 14.3893 106.413 14.6055 106.553 14.8633C106.696 15.1211 106.768 15.4297 106.768 15.7891C106.768 16.2422 106.651 16.6445 106.417 16.9961C106.185 17.3477 105.847 17.625 105.405 17.8281C104.965 18.0313 104.432 18.1328 103.807 18.1328C103.208 18.1328 102.69 18.0378 102.252 17.8477C101.815 17.6576 101.472 17.388 101.225 17.0391C100.978 16.6875 100.841 16.2708 100.815 15.7891L102.026 15.7891C102.049 16.0781 102.143 16.319 102.307 16.5117C102.474 16.7018 102.686 16.8438 102.944 16.9375C103.204 17.0286 103.489 17.0742 103.799 17.0742C104.14 17.0742 104.444 17.0208 104.709 16.9141C104.978 16.8047 105.189 16.6536 105.342 16.4609C105.496 16.2656 105.573 16.0378 105.573 15.7773C105.573 15.5404 105.505 15.3464 105.37 15.1953C105.237 15.0443 105.056 14.9193 104.827 14.8203C104.6 14.7214 104.344 14.6341 104.057 14.5586L103.112 14.3008C102.471 14.1263 101.963 13.8698 101.588 13.5313C101.216 13.1927 101.03 12.7448 101.03 12.1875C101.03 11.7266 101.155 11.3242 101.405 10.9805C101.655 10.6367 101.993 10.3698 102.42 10.1797C102.847 9.98698 103.329 9.89063 103.866 9.89063C104.407 9.89063 104.885 9.98568 105.299 10.1758C105.716 10.3659 106.044 10.6276 106.284 10.9609C106.523 11.2917 106.648 11.6719 106.659 12.1016L105.495 12.1016ZM120.536 12.5273C120.46 12.2904 120.359 12.0781 120.231 11.8906C120.106 11.7005 119.956 11.5391 119.782 11.4063C119.607 11.2708 119.408 11.168 119.184 11.0977C118.963 11.0273 118.719 10.9922 118.454 10.9922C118.003 10.9922 117.597 11.1081 117.235 11.3398C116.873 11.5716 116.586 11.9115 116.375 12.3594C116.167 12.8047 116.063 13.3503 116.063 13.9961C116.063 14.6445 116.168 15.1927 116.379 15.6406C116.59 16.0885 116.879 16.4284 117.247 16.6602C117.614 16.8919 118.032 17.0078 118.5 17.0078C118.935 17.0078 119.314 16.9193 119.637 16.7422C119.963 16.5651 120.214 16.3151 120.391 15.9922C120.571 15.6667 120.661 15.2839 120.661 14.8438L120.973 14.9023L118.684 14.9023L118.684 13.9063L121.829 13.9063L121.829 14.8164C121.829 15.4883 121.685 16.0716 121.399 16.5664C121.115 17.0586 120.722 17.4388 120.219 17.707C119.719 17.9753 119.146 18.1094 118.5 18.1094C117.777 18.1094 117.141 17.9427 116.594 17.6094C116.05 17.276 115.625 16.8034 115.321 16.1914C115.016 15.5768 114.864 14.8477 114.864 14.0039C114.864 13.3659 114.952 12.793 115.129 12.2852C115.306 11.7773 115.555 11.3464 115.875 10.9922C116.198 10.6354 116.577 10.3633 117.012 10.1758C117.45 9.98568 117.928 9.89063 118.446 9.89063C118.878 9.89063 119.28 9.95443 119.653 10.082C120.028 10.2096 120.361 10.3906 120.653 10.625C120.947 10.8594 121.191 11.138 121.383 11.4609C121.576 11.7813 121.706 12.1367 121.774 12.5273L120.536 12.5273ZM125.361 18L125.361 10L130.376 10L130.376 11.0391L126.568 11.0391L126.568 13.4766L130.115 13.4766L130.115 14.5117L126.568 14.5117L126.568 16.9609L130.423 16.9609L130.423 18L125.361 18ZM133.594 11.0391L133.594 10L139.786 10L139.786 11.0391L137.29 11.0391L137.29 18L136.086 18L136.086 11.0391L133.594 11.0391ZM155.014 14C155.014 14.8542 154.858 15.5885 154.545 16.2031C154.233 16.8151 153.805 17.2865 153.26 17.6172C152.719 17.9453 152.103 18.1094 151.413 18.1094C150.72 18.1094 150.101 17.9453 149.557 17.6172C149.015 17.2865 148.588 16.8138 148.276 16.1992C147.963 15.5846 147.807 14.8516 147.807 14C147.807 13.1458 147.963 12.4128 148.276 11.8008C148.588 11.1862 149.015 10.7148 149.557 10.3867C150.101 10.056 150.72 9.89063 151.413 9.89063C152.103 9.89063 152.719 10.056 153.26 10.3867C153.805 10.7148 154.233 11.1862 154.545 11.8008C154.858 12.4128 155.014 13.1458 155.014 14ZM153.819 14C153.819 13.349 153.713 12.8008 153.502 12.3555C153.294 11.9076 153.008 11.569 152.643 11.3398C152.281 11.1081 151.871 10.9922 151.413 10.9922C150.952 10.9922 150.54 11.1081 150.178 11.3398C149.816 11.569 149.53 11.9076 149.319 12.3555C149.111 12.8008 149.006 13.349 149.006 14C149.006 14.651 149.111 15.2005 149.319 15.6484C149.53 16.0938 149.816 16.4323 150.178 16.6641C150.54 16.8932 150.952 17.0078 151.413 17.0078C151.871 17.0078 152.281 16.8932 152.643 16.6641C153.008 16.4323 153.294 16.0938 153.502 15.6484C153.713 15.2005 153.819 14.651 153.819 14ZM158.519 18L158.519 10L161.371 10C161.993 10 162.509 10.1133 162.917 10.3398C163.326 10.5664 163.632 10.8763 163.835 11.2695C164.039 11.6602 164.14 12.1003 164.14 12.5898C164.14 13.082 164.037 13.5247 163.832 13.918C163.628 14.3086 163.321 14.6185 162.91 14.8477C162.501 15.0742 161.986 15.1875 161.367 15.1875L159.406 15.1875L159.406 14.1641L161.257 14.1641C161.651 14.1641 161.97 14.0964 162.214 13.9609C162.459 13.8229 162.639 13.6354 162.753 13.3984C162.868 13.1615 162.925 12.8919 162.925 12.5898C162.925 12.2878 162.868 12.0195 162.753 11.7852C162.639 11.5508 162.458 11.3672 162.21 11.2344C161.966 11.1016 161.643 11.0352 161.242 11.0352L159.726 11.0352L159.726 18L158.519 18ZM167.161 11.0391L167.161 10L173.352 10L173.352 11.0391L170.856 11.0391L170.856 18L169.653 18L169.653 11.0391L167.161 11.0391ZM177.927 10L177.927 18L176.72 18L176.72 10L177.927 10ZM181.685 10L183.15 10L185.697 16.2188L185.791 16.2188L188.337 10L189.802 10L189.802 18L188.654 18L188.654 12.2109L188.58 12.2109L186.22 17.9883L185.267 17.9883L182.908 12.207L182.833 12.207L182.833 18L181.685 18L181.685 10ZM194.764 10L194.764 18L193.557 18L193.557 10L194.764 10ZM202.885 12.1016C202.844 11.7318 202.672 11.4453 202.37 11.2422C202.068 11.0365 201.687 10.9336 201.229 10.9336C200.901 10.9336 200.617 10.9857 200.377 11.0898C200.138 11.1914 199.952 11.332 199.819 11.5117C199.689 11.6888 199.624 11.8906 199.624 12.1172C199.624 12.3073 199.668 12.4714 199.756 12.6094C199.847 12.7474 199.966 12.8633 200.112 12.957C200.26 13.0482 200.419 13.125 200.588 13.1875C200.758 13.2474 200.92 13.2969 201.077 13.3359L201.858 13.5391C202.113 13.6016 202.375 13.6862 202.643 13.793C202.911 13.8997 203.16 14.0404 203.389 14.2148C203.618 14.3893 203.803 14.6055 203.944 14.8633C204.087 15.1211 204.159 15.4297 204.159 15.7891C204.159 16.2422 204.042 16.6445 203.807 16.9961C203.575 17.3477 203.238 17.625 202.795 17.8281C202.355 18.0313 201.823 18.1328 201.198 18.1328C200.599 18.1328 200.081 18.0378 199.643 17.8477C199.206 17.6576 198.863 17.388 198.616 17.0391C198.368 16.6875 198.232 16.2708 198.206 15.7891L199.417 15.7891C199.44 16.0781 199.534 16.319 199.698 16.5117C199.864 16.7018 200.077 16.8438 200.334 16.9375C200.595 17.0286 200.88 17.0742 201.19 17.0742C201.531 17.0742 201.834 17.0208 202.1 16.9141C202.368 16.8047 202.579 16.6536 202.733 16.4609C202.887 16.2656 202.963 16.0378 202.963 15.7773C202.963 15.5404 202.896 15.3464 202.76 15.1953C202.627 15.0443 202.446 14.9193 202.217 14.8203C201.991 14.7214 201.734 14.6341 201.448 14.5586L200.502 14.3008C199.862 14.1263 199.354 13.8698 198.979 13.5313C198.607 13.1927 198.42 12.7448 198.42 12.1875C198.42 11.7266 198.545 11.3242 198.795 10.9805C199.045 10.6367 199.384 10.3698 199.811 10.1797C200.238 9.98698 200.72 9.89063 201.256 9.89063C201.798 9.89063 202.276 9.98568 202.69 10.1758C203.107 10.3659 203.435 10.6276 203.674 10.9609C203.914 11.2917 204.039 11.6719 204.049 12.1016L202.885 12.1016ZM207.207 11.0391L207.207 10L213.398 10L213.398 11.0391L210.902 11.0391L210.902 18L209.699 18L209.699 11.0391L207.207 11.0391ZM217.973 10L217.973 18L216.766 18L216.766 10L217.973 10ZM228.375 12.6016L227.157 12.6016C227.11 12.3411 227.023 12.112 226.895 11.9141C226.767 11.7161 226.611 11.5482 226.426 11.4102C226.241 11.2721 226.034 11.168 225.805 11.0977C225.579 11.0273 225.338 10.9922 225.083 10.9922C224.622 10.9922 224.209 11.1081 223.844 11.3398C223.482 11.5716 223.196 11.9115 222.985 12.3594C222.777 12.8073 222.672 13.3542 222.672 14C222.672 14.651 222.777 15.2005 222.985 15.6484C223.196 16.0964 223.484 16.4349 223.848 16.6641C224.213 16.8932 224.623 17.0078 225.079 17.0078C225.331 17.0078 225.571 16.974 225.797 16.9063C226.027 16.8359 226.234 16.7331 226.418 16.5977C226.603 16.4622 226.76 16.2969 226.887 16.1016C227.017 15.9036 227.107 15.6771 227.157 15.4219L228.375 15.4258C228.31 15.819 228.184 16.181 227.997 16.5117C227.812 16.8398 227.573 17.1237 227.282 17.3633C226.993 17.6003 226.662 17.7839 226.29 17.9141C225.917 18.0443 225.511 18.1094 225.071 18.1094C224.378 18.1094 223.761 17.9453 223.219 17.6172C222.678 17.2865 222.25 16.8138 221.938 16.1992C221.628 15.5846 221.473 14.8516 221.473 14C221.473 13.1458 221.629 12.4128 221.942 11.8008C222.254 11.1862 222.681 10.7148 223.223 10.3867C223.765 10.056 224.381 9.89063 225.071 9.89063C225.495 9.89063 225.891 9.95182 226.258 10.0742C226.628 10.194 226.96 10.3711 227.254 10.6055C227.549 10.8372 227.792 11.1211 227.985 11.457C228.178 11.7904 228.308 12.1719 228.375 12.6016Z" fill="white"/>
<path d="M255.882 14.2451H300V15.1275H255.882V14.2451Z" fill="white"/>
<mask id="mask2_588_2" style="mask-type:luminance" maskUnits="userSpaceOnUse" x="255" y="14" width="45" height="2">
<path d="M255.882 14.2451H300V15.1275H255.882V14.2451Z" fill="white"/>
</mask>
<g mask="url(#mask2_588_2)">
<path d="M300 14.2451H255.882V16.0098H300V14.2451Z" fill="white"/>
</g>
<mask id="mask3_588_2" style="mask-type:luminance" maskUnits="userSpaceOnUse" x="21" y="13" width="257" height="16">
<path d="M21.9723 20.8628C21.9723 16.7207 25.3301 13.3628 29.4723 13.3628H270.355C274.497 13.3628 277.855 16.7207 277.855 20.8628C277.855 25.0049 274.497 28.3628 270.355 28.3628H29.4723C25.3301 28.3628 21.9723 25.0049 21.9723 20.8628Z" fill="white"/>
</mask>
<g mask="url(#mask3_588_2)">
<path d="M277.855 20.8628C277.855 25.4922 274.102 29.2451 269.472 29.2451H30.3546C25.7252 29.2451 21.9723 25.4922 21.9723 20.8628C21.9723 24.5176 25.3301 27.4804 29.4723 27.4804H270.355C274.497 27.4804 277.855 24.5176 277.855 20.8628Z" fill="white"/>
</g>
</g>
</g>
</g>
<defs>
<clipPath id="clip0_588_2">
<rect width="300" height="28.23" fill="white" transform="translate(0 0.129883)"/>
</clipPath>
<clipPath id="clip1_588_2">
<rect width="300" height="28.23" fill="white" transform="translate(0 0.129883)"/>
</clipPath>
<clipPath id="clip2_588_2">
<rect width="300" height="28.2353" fill="white" transform="translate(0 0.127441)"/>
</clipPath>
</defs>
</svg>
