<svg width="65" height="65" viewBox="0 0 65 65" fill="none" xmlns="http://www.w3.org/2000/svg">
<g clip-path="url(#clip0_173_537)">
<g clip-path="url(#clip1_173_537)">
<g clip-path="url(#clip2_173_537)">
<path d="M39.3431 21.0512C39.5035 20.7154 39.4696 20.3058 39.3025 19.973C39.0367 19.4459 38.4968 19.1365 37.9698 18.9189C36.8802 18.4679 35.6966 18.3015 34.5213 18.2698C32.2495 18.1975 29.986 18.5773 27.8623 19.3872C25.5846 20.2681 23.6428 21.5504 21.7687 23.0683C20.9119 23.7595 19.4594 24.636 18.4181 23.8213C17.3542 22.99 18.0755 21.6528 18.714 20.7493C19.4647 19.6876 20.5512 18.8534 21.6671 18.2066C23.3092 17.2534 25.1652 16.7271 27.0024 16.2971C28.933 15.8431 30.9215 15.7159 32.8866 15.4779C34.5981 15.2716 36.3969 15.2521 37.8711 14.2243C40.0667 12.6928 38.9915 10.3956 36.9864 9.40094C34.589 8.2113 31.9342 7.84236 29.2868 8.09836C28.3484 8.19126 27.4145 8.32617 26.4882 8.50269C25.3565 8.71652 22.0925 9.12462 22.7747 6.94937C22.9335 6.44038 23.3318 6.04283 23.7648 5.73487C26.062 4.09949 28.8938 3.67709 31.6594 3.63944C34.0421 3.60564 36.414 3.96744 38.6783 4.71012C40.5832 5.33732 42.2947 6.3425 43.8269 7.63454C45.0956 8.70673 46.094 10.0703 47.4591 11.0303C48.1503 11.5167 49.2481 11.6108 49.8835 10.9708C50.6305 10.2247 50.3541 9.03577 49.8158 8.26626C49.0975 7.23774 47.9598 6.51266 46.9147 5.85459C43.5543 3.73807 39.6067 2.62447 35.6861 2.17346C33.7219 1.94341 31.7402 1.90131 29.768 2.04772C27.022 2.25779 24.2881 2.77431 21.6867 3.68763C19.8593 4.32838 18.0289 5.12575 16.4281 6.23031C15.2272 7.05629 13.8771 8.26927 13.5745 9.76236C13.2115 11.5431 14.4885 13.1039 16.2459 13.3328C17.2963 13.4698 18.3594 13.2033 19.3533 12.8351C21.518 12.0362 23.6285 11.0815 25.8414 10.4129C27.0039 10.062 28.2056 9.70814 29.4291 9.73224C30.2717 9.7488 31.6722 9.93252 32.1352 10.7638C33.4002 13.0339 27.6883 14.0594 26.522 14.4329C24.6901 15.0201 22.8454 15.5954 21.1242 16.4665C17.5703 18.2646 14.4027 20.9481 12.9164 24.7263C12.3268 26.2217 12.3893 28.0822 13.2853 29.4472C14.2581 30.9283 16.264 31.5028 17.8813 30.7649C18.9911 30.2567 19.3819 29.5225 19.5656 29.198C20.4435 27.656 21.3222 25.2978 24.3965 23.1369C26.1166 21.9259 28.1002 21.1417 30.1833 20.8491C32.2665 20.5564 34.3894 20.7638 36.3765 21.454C37.1129 21.7093 37.9585 21.9683 38.7152 21.6347C38.9832 21.5233 39.2046 21.323 39.3401 21.067L39.3431 21.0512ZM17.2036 34.05C16.8324 34.0786 16.4944 34.3135 16.2903 34.6245C15.9658 35.1184 15.9681 35.7411 16.0419 36.3058C16.197 37.4729 16.6457 38.5827 17.2044 39.618C18.2781 41.6212 19.7389 43.3912 21.5022 44.8253C23.4049 46.356 25.4882 47.3974 27.7403 48.2625C28.7666 48.6563 30.2514 49.4747 30.0646 50.7864C29.8764 52.1228 28.3577 52.1665 27.2562 52.0664C25.9618 51.9474 24.6962 51.4233 23.578 50.7803C21.9291 49.8324 20.549 48.4899 19.2562 47.1135C17.8979 45.6701 16.7933 44.0114 15.6059 42.4302C14.5714 41.0493 13.655 39.5028 12.0287 38.7408C9.6042 37.6054 8.15178 39.685 8.29258 41.9182C8.46124 44.5881 9.46867 47.0759 11.0145 49.2368C11.5626 50.0025 12.1491 50.7427 12.7635 51.4565C13.5142 52.3284 15.4997 54.9531 13.2718 55.4516C12.7522 55.5683 12.2086 55.423 11.7252 55.2024C9.15997 54.0293 7.37926 51.7878 5.96298 49.4122C4.74231 47.3657 3.86983 45.1307 3.38114 42.7984C2.97154 40.837 2.9866 38.8507 3.33898 36.8773C3.63413 35.2419 4.31554 33.6961 4.46387 32.0359C4.53691 31.1926 4.07159 30.1972 3.20119 29.9653C2.18472 29.692 1.29098 30.5247 0.892673 31.3763C0.361097 32.5125 0.302367 33.861 0.254179 35.0943C0.101332 39.0623 1.11027 43.0378 2.68166 46.6602C3.46444 48.476 4.41873 50.2128 5.53154 51.8472C7.08561 54.1211 8.9002 56.2286 10.9919 58.0251C12.4601 59.2871 14.0661 60.4744 15.8205 61.3102C17.1359 61.9367 18.8616 62.4999 20.3065 62.015C22.0277 61.4337 22.7423 59.5529 22.0616 57.9167C21.6558 56.9379 20.893 56.1511 20.0784 55.4742C18.3014 54.0007 16.4213 52.6484 14.7355 51.0672C13.8523 50.2382 12.9435 49.3716 12.3524 48.3001C11.9451 47.5623 11.4045 46.2567 11.8931 45.4405C13.2259 43.2095 16.9702 47.6436 17.8775 48.4673C19.3006 49.7601 20.7236 51.068 22.3379 52.1236C25.6735 54.3026 29.5812 55.7046 33.5967 55.1022C35.1869 54.8643 36.7666 53.8802 37.5014 52.4217C38.2965 50.8406 37.7913 48.8136 36.3434 47.7836C35.3488 47.0759 34.5168 47.106 34.1448 47.1082C32.3701 47.118 29.8884 47.5367 26.4791 45.9555C24.5712 45.0708 22.9011 43.7449 21.6068 42.0873C20.3125 40.4297 19.4312 38.488 19.0355 36.4225C18.8902 35.656 18.6892 34.7946 18.0228 34.306C17.792 34.1298 17.5074 34.0388 17.2172 34.0485L17.2036 34.05ZM39.5306 46.7257C39.7407 47.0322 40.1119 47.2076 40.4853 47.2295C41.0749 47.2626 41.6132 46.9501 42.065 46.603C42.9979 45.8862 43.7358 44.9428 44.3509 43.9406C45.5492 42.009 46.3518 39.8587 46.7122 37.6144C47.0871 35.202 46.9486 32.8784 46.5714 30.4961C46.3997 29.4066 46.3666 27.7147 47.5938 27.2178C48.846 26.7096 49.6441 28.0054 50.1064 29.0105C50.6508 30.1912 50.833 31.5495 50.833 32.8385C50.833 34.7389 50.3632 36.6062 49.8165 38.414C49.2443 40.3129 48.3634 42.0989 47.5841 43.918C46.9079 45.503 46.0255 47.0713 46.1783 48.8573C46.4065 51.525 48.9326 51.7433 50.7976 50.504C53.0256 49.023 54.673 46.9095 55.7746 44.488C56.1646 43.6297 56.5109 42.7525 56.8227 41.8633C57.2044 40.773 58.4821 37.7447 60.0264 39.4237C60.3893 39.8153 60.5347 40.3596 60.5828 40.8882C60.8486 43.6959 59.7998 46.3583 58.4498 48.773C57.2878 50.8536 55.7887 52.727 54.0134 54.3169C52.5166 55.6534 50.7908 56.6314 48.9062 57.3136C47.3431 57.8753 45.6626 58.0583 44.1499 58.7593C43.3826 59.1146 42.7554 60.0197 42.9874 60.8886C43.2614 61.905 44.4277 62.2642 45.3651 62.1829C46.6143 62.0745 47.8107 61.4518 48.9032 60.875C52.4164 59.0235 55.3544 56.1616 57.7059 52.9902C58.8869 51.4046 59.9143 49.7101 60.7741 47.9297C61.9652 45.4465 62.8808 42.8202 63.3943 40.1112C63.7535 38.2077 63.9756 36.2245 63.825 34.2872C63.7098 32.834 63.3341 31.0585 62.1919 30.0504C60.8306 28.8472 58.842 29.1709 57.7646 30.5774C57.1208 31.4192 56.8204 32.4733 56.6419 33.5177C56.2542 35.7938 56.0223 38.094 55.496 40.3453C55.2196 41.5244 54.9237 42.7427 54.2913 43.7923C53.8553 44.5144 52.9962 45.634 52.0445 45.6204C49.4453 45.5805 51.4143 40.1209 51.6733 38.9238C52.0806 37.0452 52.5038 35.1591 52.6099 33.2315C52.8283 29.256 52.0904 25.1698 49.559 21.9916C48.5591 20.7342 46.9162 19.8578 45.2861 19.9512C43.5189 20.0528 42.0168 21.5037 41.8489 23.2716C41.733 24.4876 42.1749 25.1931 42.3632 25.5146C43.2592 27.0461 44.8614 28.9857 45.1957 32.7293C45.3864 34.8247 45.0754 36.9354 44.2885 38.8868C43.5016 40.8382 42.2615 42.5742 40.6706 43.9512C40.0802 44.4594 39.4357 45.0655 39.3439 45.887C39.3056 46.18 39.3723 46.4771 39.5321 46.7257H39.5306Z" fill="white"/>
</g>
</g>
</g>
<defs>
<clipPath id="clip0_173_537">
<rect width="64" height="64" fill="white" transform="translate(0.0117188 0.0803223)"/>
</clipPath>
<clipPath id="clip1_173_537">
<rect width="64" height="64" fill="white" transform="translate(0.0117188 0.0803223)"/>
</clipPath>
<clipPath id="clip2_173_537">
<rect width="64" height="60.2353" fill="white" transform="translate(0.0117188 1.96265)"/>
</clipPath>
</defs>
</svg>
